<mxfile host="app.diagrams.net" modified="2023-06-19T22:15:52.762Z" agent="Mozilla/5.0 (Windows NT 10.0; Win64; x64) AppleWebKit/537.36 (KHTML, like Gecko) Chrome/114.0.0.0 Safari/537.36" etag="1YI20lb09PWqRzHEd2LP" version="21.5.0" type="github">
  <diagram name="Page-1" id="VZ1QwkdnMugrKdtHPK6h">
    <mxGraphModel dx="880" dy="490" grid="1" gridSize="10" guides="1" tooltips="1" connect="1" arrows="1" fold="1" page="1" pageScale="1" pageWidth="850" pageHeight="1100" math="0" shadow="0">
      <root>
        <mxCell id="0" />
        <mxCell id="1" parent="0" />
        <mxCell id="7XGpZqaLMFZ3zh0mP4X5-2" value="&lt;font color=&quot;#1a1a1a&quot;&gt;BACKGROUND IMG&lt;/font&gt;" style="rounded=0;whiteSpace=wrap;html=1;fillColor=#f5f5f5;strokeColor=#666666;gradientColor=#b3b3b3;" vertex="1" parent="1">
          <mxGeometry width="850" height="320" as="geometry" />
        </mxCell>
        <mxCell id="7XGpZqaLMFZ3zh0mP4X5-3" value="&lt;span style=&quot;background-color: rgb(255, 255, 255);&quot;&gt;&lt;font color=&quot;#1a1a1a&quot;&gt;&lt;br&gt;&lt;/font&gt;&lt;/span&gt;" style="rounded=1;whiteSpace=wrap;html=1;fillColor=none;strokeColor=#1A1A1A;" vertex="1" parent="1">
          <mxGeometry width="850" height="60" as="geometry" />
        </mxCell>
        <mxCell id="7XGpZqaLMFZ3zh0mP4X5-4" value="HAW IMG" style="ellipse;whiteSpace=wrap;html=1;" vertex="1" parent="1">
          <mxGeometry width="100" height="60" as="geometry" />
        </mxCell>
        <mxCell id="7XGpZqaLMFZ3zh0mP4X5-6" value="&lt;font color=&quot;#1a1a1a&quot;&gt;Contact&lt;/font&gt;" style="html=1;whiteSpace=wrap;fillColor=none;strokeColor=#1A1A1A;strokeWidth=4;perimeterSpacing=9;rounded=1;gradientColor=#7ea6e0;fontColor=#66FFFF;" vertex="1" parent="1">
          <mxGeometry x="730" y="5" width="110" height="50" as="geometry" />
        </mxCell>
        <mxCell id="7XGpZqaLMFZ3zh0mP4X5-8" value="Title" style="text;align=center;fontStyle=1;verticalAlign=middle;spacingLeft=3;spacingRight=3;strokeColor=none;rotatable=0;points=[[0,0.5],[1,0.5]];portConstraint=eastwest;html=1;" vertex="1" parent="1">
          <mxGeometry x="640" y="17" width="80" height="26" as="geometry" />
        </mxCell>
        <mxCell id="7XGpZqaLMFZ3zh0mP4X5-9" value="Title" style="text;align=center;fontStyle=1;verticalAlign=middle;spacingLeft=3;spacingRight=3;strokeColor=none;rotatable=0;points=[[0,0.5],[1,0.5]];portConstraint=eastwest;html=1;" vertex="1" parent="1">
          <mxGeometry x="640" y="17" width="80" height="26" as="geometry" />
        </mxCell>
        <mxCell id="7XGpZqaLMFZ3zh0mP4X5-10" value="&lt;font color=&quot;#1a1a1a&quot;&gt;link&lt;/font&gt;" style="text;html=1;strokeColor=none;fillColor=none;align=center;verticalAlign=middle;whiteSpace=wrap;rounded=0;" vertex="1" parent="1">
          <mxGeometry x="650" y="15" width="60" height="25" as="geometry" />
        </mxCell>
        <mxCell id="7XGpZqaLMFZ3zh0mP4X5-11" value="link" style="text;html=1;strokeColor=none;fillColor=none;align=center;verticalAlign=middle;whiteSpace=wrap;rounded=0;fontColor=#1A1A1A;" vertex="1" parent="1">
          <mxGeometry x="480" y="15" width="60" height="30" as="geometry" />
        </mxCell>
        <mxCell id="7XGpZqaLMFZ3zh0mP4X5-12" value="link" style="text;html=1;strokeColor=none;fillColor=none;align=center;verticalAlign=middle;whiteSpace=wrap;rounded=0;fontColor=#1A1A1A;" vertex="1" parent="1">
          <mxGeometry x="600" y="13" width="60" height="30" as="geometry" />
        </mxCell>
        <mxCell id="7XGpZqaLMFZ3zh0mP4X5-13" value="link" style="text;html=1;strokeColor=none;fillColor=none;align=center;verticalAlign=middle;whiteSpace=wrap;rounded=0;fontColor=#1A1A1A;" vertex="1" parent="1">
          <mxGeometry x="540" y="12.5" width="60" height="30" as="geometry" />
        </mxCell>
        <mxCell id="7XGpZqaLMFZ3zh0mP4X5-14" value="&lt;h1&gt;Heading&lt;/h1&gt;&lt;p&gt;Lorem ipsum dolor sit amet, consectetur adipisicing elit, sed do eiusmod tempor incididunt ut labore et dolore magna aliqua.&lt;/p&gt;" style="text;html=1;strokeColor=none;fillColor=none;spacing=5;spacingTop=-20;whiteSpace=wrap;overflow=hidden;rounded=0;labelBackgroundColor=default;" vertex="1" parent="1">
          <mxGeometry x="320" y="350" width="190" height="120" as="geometry" />
        </mxCell>
        <mxCell id="7XGpZqaLMFZ3zh0mP4X5-15" value="" style="rounded=0;whiteSpace=wrap;html=1;fillColor=#f5f5f5;gradientColor=#b3b3b3;strokeColor=#666666;" vertex="1" parent="1">
          <mxGeometry y="320" width="850" height="170" as="geometry" />
        </mxCell>
        <mxCell id="7XGpZqaLMFZ3zh0mP4X5-16" value="&lt;h1&gt;&lt;font color=&quot;#1a1a1a&quot;&gt;&amp;nbsp; &amp;nbsp; &amp;nbsp; &amp;nbsp; &amp;nbsp; &amp;nbsp; &amp;nbsp;LOREM IPSUM&lt;/font&gt;&lt;/h1&gt;&lt;p&gt;&lt;font color=&quot;#1a1a1a&quot;&gt;Lorem ipsum dolor sit amet consectetur adipisicing elit, sed do&amp;nbsp; &amp;nbsp; &amp;nbsp;eiusmod tempor incididunt ut labore et dolore magna aliqua.&lt;/font&gt;&lt;/p&gt;" style="text;html=1;strokeColor=none;fillColor=none;spacing=5;spacingTop=-20;whiteSpace=wrap;overflow=hidden;rounded=0;" vertex="1" parent="1">
          <mxGeometry x="250" y="350" width="350" height="120" as="geometry" />
        </mxCell>
        <mxCell id="7XGpZqaLMFZ3zh0mP4X5-17" style="edgeStyle=orthogonalEdgeStyle;rounded=0;orthogonalLoop=1;jettySize=auto;html=1;exitX=0.5;exitY=1;exitDx=0;exitDy=0;" edge="1" parent="1" source="7XGpZqaLMFZ3zh0mP4X5-15" target="7XGpZqaLMFZ3zh0mP4X5-15">
          <mxGeometry relative="1" as="geometry" />
        </mxCell>
        <mxCell id="7XGpZqaLMFZ3zh0mP4X5-18" value="" style="rounded=0;whiteSpace=wrap;html=1;fillColor=#C4C4C4;strokeColor=#36393d;" vertex="1" parent="1">
          <mxGeometry y="490" width="850" height="460" as="geometry" />
        </mxCell>
        <mxCell id="7XGpZqaLMFZ3zh0mP4X5-19" value="" style="verticalLabelPosition=bottom;verticalAlign=top;html=1;shape=mxgraph.basic.rect;fillColor2=none;strokeWidth=1;size=20;indent=5;direction=south;fillColor=#eeeeee;strokeColor=#36393d;" vertex="1" parent="1">
          <mxGeometry x="80" y="520" width="170" height="280" as="geometry" />
        </mxCell>
        <mxCell id="7XGpZqaLMFZ3zh0mP4X5-20" value="" style="verticalLabelPosition=bottom;verticalAlign=top;html=1;shape=mxgraph.basic.rect;fillColor2=none;strokeWidth=1;size=20;indent=5;direction=south;fillColor=#eeeeee;strokeColor=#36393d;" vertex="1" parent="1">
          <mxGeometry x="340" y="520" width="170" height="280" as="geometry" />
        </mxCell>
        <mxCell id="7XGpZqaLMFZ3zh0mP4X5-21" value="" style="verticalLabelPosition=bottom;verticalAlign=top;html=1;shape=mxgraph.basic.rect;fillColor2=none;strokeWidth=1;size=20;indent=5;direction=south;fillColor=#eeeeee;strokeColor=#36393d;" vertex="1" parent="1">
          <mxGeometry x="600" y="520" width="170" height="280" as="geometry" />
        </mxCell>
        <mxCell id="7XGpZqaLMFZ3zh0mP4X5-22" value="&lt;h1&gt;&amp;nbsp; lorem ipsum&lt;/h1&gt;&lt;p&gt;Lorem ipsum dolor sit amet, consectetur adipisicing elit, sed do eiusmod tempor incididunt ut labore et dolore magna aliqua.&lt;/p&gt;" style="text;html=1;strokeColor=none;fillColor=none;spacing=5;spacingTop=-20;whiteSpace=wrap;overflow=hidden;rounded=0;fontColor=#1A1A1A;" vertex="1" parent="1">
          <mxGeometry x="70" y="810" width="190" height="120" as="geometry" />
        </mxCell>
        <mxCell id="7XGpZqaLMFZ3zh0mP4X5-26" value="" style="edgeStyle=orthogonalEdgeStyle;rounded=0;orthogonalLoop=1;jettySize=auto;html=1;" edge="1" parent="1" source="7XGpZqaLMFZ3zh0mP4X5-25" target="7XGpZqaLMFZ3zh0mP4X5-22">
          <mxGeometry relative="1" as="geometry" />
        </mxCell>
        <mxCell id="7XGpZqaLMFZ3zh0mP4X5-25" value="&lt;h1&gt;&amp;nbsp; lorem ipsum&lt;/h1&gt;&lt;p&gt;&amp;nbsp; &amp;nbsp; Lorem ipsum dolor sit amet,&amp;nbsp; &amp;nbsp; &amp;nbsp;consectetur adipisicing elit, sed&amp;nbsp; do eiusmod tempor incididunt ut&amp;nbsp; labore et dolore magna aliqua.&lt;/p&gt;" style="text;html=1;strokeColor=none;fillColor=none;spacing=5;spacingTop=-20;whiteSpace=wrap;overflow=hidden;rounded=0;fontColor=#1A1A1A;" vertex="1" parent="1">
          <mxGeometry x="330" y="810" width="190" height="120" as="geometry" />
        </mxCell>
        <mxCell id="7XGpZqaLMFZ3zh0mP4X5-28" value="&lt;h1&gt;&amp;nbsp; lorem ipsum&lt;/h1&gt;&lt;p&gt;Lorem ipsum dolor sit amet, consectetur adipisicing elit, sed do eiusmod tempor incididunt ut labore et dolore magna aliqua.&lt;/p&gt;" style="text;html=1;strokeColor=none;fillColor=none;spacing=5;spacingTop=-20;whiteSpace=wrap;overflow=hidden;rounded=0;fontColor=#1A1A1A;" vertex="1" parent="1">
          <mxGeometry x="600" y="810" width="190" height="120" as="geometry" />
        </mxCell>
        <mxCell id="7XGpZqaLMFZ3zh0mP4X5-29" value="IMG" style="text;html=1;strokeColor=none;fillColor=none;align=center;verticalAlign=middle;whiteSpace=wrap;rounded=0;fontColor=#1A1A1A;" vertex="1" parent="1">
          <mxGeometry x="135" y="650" width="60" height="30" as="geometry" />
        </mxCell>
        <mxCell id="7XGpZqaLMFZ3zh0mP4X5-30" value="IMG" style="text;html=1;strokeColor=none;fillColor=none;align=center;verticalAlign=middle;whiteSpace=wrap;rounded=0;fontColor=#1A1A1A;" vertex="1" parent="1">
          <mxGeometry x="395" y="645" width="60" height="30" as="geometry" />
        </mxCell>
        <mxCell id="7XGpZqaLMFZ3zh0mP4X5-31" value="IMG" style="text;html=1;strokeColor=none;fillColor=none;align=center;verticalAlign=middle;whiteSpace=wrap;rounded=0;fontColor=#1A1A1A;" vertex="1" parent="1">
          <mxGeometry x="660" y="645" width="60" height="30" as="geometry" />
        </mxCell>
        <mxCell id="7XGpZqaLMFZ3zh0mP4X5-32" value="" style="whiteSpace=wrap;html=1;fillColor=#7A7A7A;textDirection=rtl;" vertex="1" parent="1">
          <mxGeometry y="950" width="850" height="170" as="geometry" />
        </mxCell>
        <mxCell id="7XGpZqaLMFZ3zh0mP4X5-33" value="" style="rounded=0;whiteSpace=wrap;html=1;fillColor=#C4C4C4;" vertex="1" parent="1">
          <mxGeometry y="1120" width="850" height="270" as="geometry" />
        </mxCell>
        <mxCell id="7XGpZqaLMFZ3zh0mP4X5-34" value="&lt;font style=&quot;font-size: 22px;&quot;&gt;MORELOREMIPSUM&amp;nbsp;&amp;nbsp;&lt;/font&gt;" style="text;html=1;strokeColor=none;fillColor=none;align=center;verticalAlign=middle;whiteSpace=wrap;rounded=0;" vertex="1" parent="1">
          <mxGeometry x="385" y="1020" width="60" height="30" as="geometry" />
        </mxCell>
        <mxCell id="7XGpZqaLMFZ3zh0mP4X5-35" value="" style="rounded=1;whiteSpace=wrap;html=1;" vertex="1" parent="1">
          <mxGeometry x="340" y="1310" width="165" height="60" as="geometry" />
        </mxCell>
        <mxCell id="7XGpZqaLMFZ3zh0mP4X5-36" value="BUTTON" style="text;html=1;strokeColor=none;fillColor=none;align=center;verticalAlign=middle;whiteSpace=wrap;rounded=0;" vertex="1" parent="1">
          <mxGeometry x="393" y="1325" width="60" height="30" as="geometry" />
        </mxCell>
        <mxCell id="7XGpZqaLMFZ3zh0mP4X5-38" value="&lt;font style=&quot;font-size: 20px;&quot;&gt;MORELOREMIPSUM&lt;/font&gt;" style="text;html=1;strokeColor=none;fillColor=none;align=center;verticalAlign=middle;whiteSpace=wrap;rounded=0;" vertex="1" parent="1">
          <mxGeometry x="385" y="1190" width="60" height="30" as="geometry" />
        </mxCell>
        <mxCell id="7XGpZqaLMFZ3zh0mP4X5-39" value="" style="rounded=0;whiteSpace=wrap;html=1;" vertex="1" parent="1">
          <mxGeometry y="1390" width="850" height="100" as="geometry" />
        </mxCell>
        <mxCell id="7XGpZqaLMFZ3zh0mP4X5-40" value="&lt;font style=&quot;font-size: 16px;&quot;&gt;FOOTER&lt;/font&gt;" style="text;html=1;strokeColor=none;fillColor=none;align=center;verticalAlign=middle;whiteSpace=wrap;rounded=0;" vertex="1" parent="1">
          <mxGeometry x="393" y="1425" width="60" height="30" as="geometry" />
        </mxCell>
        <mxCell id="7XGpZqaLMFZ3zh0mP4X5-41" value="LINK" style="text;html=1;strokeColor=none;fillColor=none;align=center;verticalAlign=middle;whiteSpace=wrap;rounded=0;" vertex="1" parent="1">
          <mxGeometry x="710" y="1450" width="60" height="30" as="geometry" />
        </mxCell>
        <mxCell id="7XGpZqaLMFZ3zh0mP4X5-42" value="LINK" style="text;html=1;strokeColor=none;fillColor=none;align=center;verticalAlign=middle;whiteSpace=wrap;rounded=0;" vertex="1" parent="1">
          <mxGeometry x="770" y="1450" width="60" height="30" as="geometry" />
        </mxCell>
        <mxCell id="7XGpZqaLMFZ3zh0mP4X5-43" value="LINK" style="text;html=1;strokeColor=none;fillColor=none;align=center;verticalAlign=middle;whiteSpace=wrap;rounded=0;" vertex="1" parent="1">
          <mxGeometry x="640" y="1450" width="60" height="30" as="geometry" />
        </mxCell>
      </root>
    </mxGraphModel>
  </diagram>
</mxfile>
